<?xml version="1.0" encoding="UTF-8"?>
<svg width="18pt" height="18pt" version="1.1" viewBox="0 0 752 752"  fill="#858585" xmlns="http://www.w3.org/2000/svg">
 <path d="m499.04 336.32h-11.699l-0.046875-58.301c-0.046875-63.504-51.715-115.17-115.22-115.12-63.508 0.046875-115.18 51.715-115.13 115.22l0.09375 58.297h-4.1641c-21.832 0.046875-39.543 17.758-39.496 39.59v173.57c0 21.832 17.758 39.543 39.59 39.543l246.17-0.13672c21.832 0 39.543-17.711 39.496-39.543v-173.62c0-21.832-17.758-39.496-39.59-39.496zm-199.57 0.09375-0.09375-58.297c0-40.113 32.582-72.742 72.695-72.789 40.113 0 72.742 32.629 72.742 72.695l0.09375 58.297z"/>
</svg>
