<?xml version="1.0" encoding="UTF-8"?>
<svg width="18pt" height="18pt" version="1.1" viewBox="0 0 752 752" fill="#858585" xmlns="http://www.w3.org/2000/svg">
 <defs>
  <clipPath id="a">
   <path d="m139.21 139.21h448.79v1.7891h-448.79z"/>
  </clipPath>
 </defs>
 <g clip-path="url(#a)">
  <path transform="matrix(4.7358 0 0 4.7358 139.21 139.21)" d="m16.318-96.485c-5.9025 6.9319-13.969 11.445-22.867 11.445-9.0534 0-17.248-4.6702-23.178-11.81-13.346 8.1312-22.312 23.2-22.312 40.451h90.075c8.25e-4 -16.993-8.6987-31.873-21.719-40.085z" fill="none" stroke="#1b75bb" stroke-miterlimit="10" stroke-width="4"/>
 </g>
 <path d="m497.45 271.75c0 73.176-54.363 142.32-121.44 142.32-67.074 0-121.45-69.148-121.45-142.32 0-73.191 54.371-122.7 121.45-122.7 67.07 0 121.44 49.504 121.44 122.7z"/>
 <path d="m488.45 409.65c-28.473 33.43-67.363 55.191-110.27 55.191-43.648 0-83.164-22.52-111.76-56.945-64.352 39.207-107.58 111.86-107.58 195.05h434.34c-0.003906-81.949-41.945-153.7-104.73-193.3z"/>
</svg>
